<mxfile host="app.diagrams.net" agent="Mozilla/5.0 (Windows NT 10.0; Win64; x64) AppleWebKit/537.36 (KHTML, like Gecko) Chrome/138.0.0.0 Safari/537.36 Edg/138.0.0.0" version="28.0.7">
  <diagram name="第 1 页" id="t3NheEvdk579gPAgsyTc">
    <mxGraphModel dx="1034" dy="666" grid="1" gridSize="10" guides="1" tooltips="1" connect="1" arrows="1" fold="1" page="1" pageScale="1" pageWidth="827" pageHeight="1169" math="0" shadow="0">
      <root>
        <mxCell id="0" />
        <mxCell id="1" parent="0" />
        <mxCell id="7G4zejkk2pmOW_crcls--19" style="edgeStyle=orthogonalEdgeStyle;rounded=0;orthogonalLoop=1;jettySize=auto;html=1;exitX=0.5;exitY=1;exitDx=0;exitDy=0;entryX=0.5;entryY=0;entryDx=0;entryDy=0;" edge="1" parent="1" source="7G4zejkk2pmOW_crcls--2" target="7G4zejkk2pmOW_crcls--9">
          <mxGeometry relative="1" as="geometry">
            <Array as="points">
              <mxPoint x="320" y="280" />
              <mxPoint x="414" y="280" />
            </Array>
          </mxGeometry>
        </mxCell>
        <mxCell id="7G4zejkk2pmOW_crcls--2" value="words&lt;div&gt;&lt;font style=&quot;color: rgb(234, 107, 102);&quot;&gt;外部OCR结果，由doc-split服务传入&lt;/font&gt;&lt;/div&gt;" style="rounded=0;whiteSpace=wrap;html=1;" vertex="1" parent="1">
          <mxGeometry x="260" y="80" width="120" height="60" as="geometry" />
        </mxCell>
        <mxCell id="7G4zejkk2pmOW_crcls--8" style="edgeStyle=orthogonalEdgeStyle;rounded=0;orthogonalLoop=1;jettySize=auto;html=1;exitX=0.5;exitY=1;exitDx=0;exitDy=0;entryX=0.5;entryY=0;entryDx=0;entryDy=0;" edge="1" parent="1" source="7G4zejkk2pmOW_crcls--3" target="7G4zejkk2pmOW_crcls--7">
          <mxGeometry relative="1" as="geometry" />
        </mxCell>
        <mxCell id="7G4zejkk2pmOW_crcls--3" value="&lt;div&gt;path&lt;/div&gt;&lt;div&gt;&lt;font style=&quot;color: rgb(234, 107, 102);&quot;&gt;图片的cos路径&lt;/font&gt;&lt;/div&gt;" style="rounded=0;whiteSpace=wrap;html=1;" vertex="1" parent="1">
          <mxGeometry x="430" y="80" width="120" height="60" as="geometry" />
        </mxCell>
        <mxCell id="7G4zejkk2pmOW_crcls--21" style="edgeStyle=orthogonalEdgeStyle;rounded=0;orthogonalLoop=1;jettySize=auto;html=1;exitX=0.5;exitY=1;exitDx=0;exitDy=0;entryX=0.5;entryY=0;entryDx=0;entryDy=0;" edge="1" parent="1" source="7G4zejkk2pmOW_crcls--6" target="7G4zejkk2pmOW_crcls--17">
          <mxGeometry relative="1" as="geometry">
            <Array as="points">
              <mxPoint x="630" y="450" />
              <mxPoint x="414" y="450" />
            </Array>
          </mxGeometry>
        </mxCell>
        <mxCell id="7G4zejkk2pmOW_crcls--6" value="ocr模块&lt;div&gt;&lt;font style=&quot;color: rgb(234, 107, 102);&quot;&gt;给出图片的文字位置和文字内容&lt;/font&gt;&lt;/div&gt;" style="rounded=0;whiteSpace=wrap;html=1;" vertex="1" parent="1">
          <mxGeometry x="570" y="330" width="120" height="60" as="geometry" />
        </mxCell>
        <mxCell id="7G4zejkk2pmOW_crcls--18" style="edgeStyle=orthogonalEdgeStyle;rounded=0;orthogonalLoop=1;jettySize=auto;html=1;exitX=0.5;exitY=1;exitDx=0;exitDy=0;entryX=0.5;entryY=0;entryDx=0;entryDy=0;" edge="1" parent="1" source="7G4zejkk2pmOW_crcls--7" target="7G4zejkk2pmOW_crcls--9">
          <mxGeometry relative="1" as="geometry" />
        </mxCell>
        <mxCell id="7G4zejkk2pmOW_crcls--7" value="从cos下载图片到本地tmp目录" style="rounded=0;whiteSpace=wrap;html=1;" vertex="1" parent="1">
          <mxGeometry x="354" y="190" width="120" height="60" as="geometry" />
        </mxCell>
        <mxCell id="7G4zejkk2pmOW_crcls--11" style="edgeStyle=orthogonalEdgeStyle;rounded=0;orthogonalLoop=1;jettySize=auto;html=1;exitX=1;exitY=0.5;exitDx=0;exitDy=0;" edge="1" parent="1" source="7G4zejkk2pmOW_crcls--9" target="7G4zejkk2pmOW_crcls--6">
          <mxGeometry relative="1" as="geometry" />
        </mxCell>
        <mxCell id="7G4zejkk2pmOW_crcls--12" value="否" style="edgeLabel;html=1;align=center;verticalAlign=middle;resizable=0;points=[];" vertex="1" connectable="0" parent="7G4zejkk2pmOW_crcls--11">
          <mxGeometry x="-0.3091" y="-2" relative="1" as="geometry">
            <mxPoint x="8" y="-12" as="offset" />
          </mxGeometry>
        </mxCell>
        <mxCell id="7G4zejkk2pmOW_crcls--20" style="edgeStyle=orthogonalEdgeStyle;rounded=0;orthogonalLoop=1;jettySize=auto;html=1;exitX=0.5;exitY=1;exitDx=0;exitDy=0;entryX=0.5;entryY=0;entryDx=0;entryDy=0;" edge="1" parent="1" source="7G4zejkk2pmOW_crcls--9" target="7G4zejkk2pmOW_crcls--17">
          <mxGeometry relative="1" as="geometry" />
        </mxCell>
        <mxCell id="7G4zejkk2pmOW_crcls--22" value="是" style="edgeLabel;html=1;align=center;verticalAlign=middle;resizable=0;points=[];" vertex="1" connectable="0" parent="7G4zejkk2pmOW_crcls--20">
          <mxGeometry x="-0.4178" y="-1" relative="1" as="geometry">
            <mxPoint x="1" y="-6" as="offset" />
          </mxGeometry>
        </mxCell>
        <mxCell id="7G4zejkk2pmOW_crcls--9" value="words不为空且len(words) &amp;lt; 500" style="rhombus;whiteSpace=wrap;html=1;" vertex="1" parent="1">
          <mxGeometry x="346" y="320" width="136" height="80" as="geometry" />
        </mxCell>
        <mxCell id="7G4zejkk2pmOW_crcls--27" style="edgeStyle=orthogonalEdgeStyle;rounded=0;orthogonalLoop=1;jettySize=auto;html=1;exitX=0.5;exitY=1;exitDx=0;exitDy=0;entryX=0.5;entryY=0;entryDx=0;entryDy=0;" edge="1" parent="1" source="7G4zejkk2pmOW_crcls--17" target="7G4zejkk2pmOW_crcls--24">
          <mxGeometry relative="1" as="geometry" />
        </mxCell>
        <mxCell id="7G4zejkk2pmOW_crcls--17" value="文档布局模型&lt;div&gt;&lt;font style=&quot;color: rgb(234, 107, 102);&quot;&gt;yolo11&lt;/font&gt;&lt;/div&gt;" style="rounded=0;whiteSpace=wrap;html=1;" vertex="1" parent="1">
          <mxGeometry x="354" y="490" width="120" height="60" as="geometry" />
        </mxCell>
        <mxCell id="7G4zejkk2pmOW_crcls--28" style="edgeStyle=orthogonalEdgeStyle;rounded=0;orthogonalLoop=1;jettySize=auto;html=1;exitX=0.5;exitY=1;exitDx=0;exitDy=0;entryX=0.5;entryY=0;entryDx=0;entryDy=0;" edge="1" parent="1" source="7G4zejkk2pmOW_crcls--24" target="7G4zejkk2pmOW_crcls--25">
          <mxGeometry relative="1" as="geometry" />
        </mxCell>
        <mxCell id="7G4zejkk2pmOW_crcls--24" value="表格识别模型&lt;div&gt;&lt;span style=&quot;color: rgb(234, 107, 102);&quot;&gt;yolo11&lt;/span&gt;&lt;/div&gt;" style="rounded=0;whiteSpace=wrap;html=1;" vertex="1" parent="1">
          <mxGeometry x="354" y="585" width="120" height="60" as="geometry" />
        </mxCell>
        <mxCell id="7G4zejkk2pmOW_crcls--32" style="edgeStyle=orthogonalEdgeStyle;rounded=0;orthogonalLoop=1;jettySize=auto;html=1;exitX=0.5;exitY=1;exitDx=0;exitDy=0;entryX=0.5;entryY=0;entryDx=0;entryDy=0;" edge="1" parent="1" source="7G4zejkk2pmOW_crcls--25" target="7G4zejkk2pmOW_crcls--31">
          <mxGeometry relative="1" as="geometry" />
        </mxCell>
        <mxCell id="7G4zejkk2pmOW_crcls--25" value="阅读顺序模型&lt;div&gt;&lt;font style=&quot;color: rgb(234, 107, 102);&quot;&gt;layoutreader&lt;/font&gt;&lt;/div&gt;" style="rounded=0;whiteSpace=wrap;html=1;" vertex="1" parent="1">
          <mxGeometry x="354" y="680" width="120" height="60" as="geometry" />
        </mxCell>
        <mxCell id="7G4zejkk2pmOW_crcls--33" style="edgeStyle=orthogonalEdgeStyle;rounded=0;orthogonalLoop=1;jettySize=auto;html=1;exitX=0.5;exitY=1;exitDx=0;exitDy=0;" edge="1" parent="1" source="7G4zejkk2pmOW_crcls--31">
          <mxGeometry relative="1" as="geometry">
            <mxPoint x="414" y="860" as="targetPoint" />
          </mxGeometry>
        </mxCell>
        <mxCell id="7G4zejkk2pmOW_crcls--31" value="输出结果" style="rounded=0;whiteSpace=wrap;html=1;" vertex="1" parent="1">
          <mxGeometry x="354" y="770" width="120" height="60" as="geometry" />
        </mxCell>
        <mxCell id="7G4zejkk2pmOW_crcls--35" value="上传结果到cos" style="rounded=0;whiteSpace=wrap;html=1;" vertex="1" parent="1">
          <mxGeometry x="354" y="860" width="120" height="60" as="geometry" />
        </mxCell>
      </root>
    </mxGraphModel>
  </diagram>
</mxfile>
